<?xml version="1.0" standalone="no"?>
<!DOCTYPE svg PUBLIC "-//W3C//DTD SVG 20010904//EN"
 "http://www.w3.org/TR/2001/REC-SVG-20010904/DTD/svg10.dtd">
<svg version="1.0" xmlns="http://www.w3.org/2000/svg"
 width="353.000000pt" height="347.000000pt" viewBox="0 0 353.000000 347.000000"
 preserveAspectRatio="xMidYMid meet">
<metadata>
Created by potrace 1.15, written by Peter Selinger 2001-2017
</metadata>
<g transform="translate(0.000000,347.000000) scale(0.100000,-0.100000)"
fill="#6f4594" stroke="none">
<path d="M1712 3411 c-12 -26 -27 -69 -34 -95 -13 -50 -19 -54 -39 -30 -12 15
-89 58 -89 50 0 -2 7 -17 15 -32 15 -30 19 -71 9 -97 -5 -14 -10 -14 -41 -1
-32 14 -113 12 -113 -3 0 -2 11 -19 24 -36 14 -18 39 -64 56 -102 17 -39 41
-81 53 -94 30 -32 105 -63 136 -56 14 3 32 1 40 -4 22 -14 -14 -27 -96 -35
-54 -5 -80 -3 -109 9 -20 8 -39 13 -41 11 -7 -7 24 -60 49 -83 30 -28 70 -43
116 -43 47 -1 67 -16 75 -58 4 -19 21 -54 37 -79 24 -35 27 -44 13 -38 -29 12
-85 27 -133 36 -40 7 -38 8 23 5 37 -2 67 0 67 4 0 5 -11 22 -25 39 -70 83
-236 59 -365 -54 -74 -64 -150 -99 -198 -91 -68 11 -117 64 -137 148 -12 52
-13 53 -24 25 -6 -16 -11 -51 -11 -79 0 -39 -3 -49 -14 -45 -8 3 -34 11 -58
17 -88 24 -150 71 -196 149 l-20 33 -17 -26 c-46 -70 -4 -197 79 -237 l42 -21
-33 -33 c-30 -30 -33 -38 -33 -94 0 -34 3 -61 7 -61 4 0 16 9 28 20 l22 20
-10 -47 c-12 -60 3 -119 40 -164 26 -31 90 -66 100 -55 3 3 -2 23 -11 46 -31
77 -18 160 32 213 l26 27 -37 0 -37 0 0 60 0 60 208 0 c174 0 231 4 356 25
175 29 239 31 367 9 340 -58 605 -268 706 -559 25 -73 27 -93 28 -225 0 -125
-3 -155 -23 -220 -77 -245 -262 -426 -526 -516 -161 -55 -390 -70 -571 -38
-55 10 -180 19 -320 23 l-230 6 0 55 0 55 75 6 c139 10 140 11 140 288 0 209
0 210 -25 239 -19 23 -37 32 -73 37 -56 7 -93 -5 -127 -41 -32 -35 -31 -50 3
-59 110 -27 193 -151 167 -252 -6 -26 -7 -25 -24 25 -24 69 -67 121 -127 152
-42 22 -62 25 -145 25 -54 0 -100 -3 -104 -7 -4 -4 9 -21 28 -37 19 -17 51
-62 71 -100 l36 -68 -63 0 c-140 1 -229 -95 -197 -214 8 -30 28 -58 66 -96 68
-65 85 -69 71 -14 -12 44 3 77 48 107 27 18 84 21 110 7 14 -8 11 -14 -21 -38
-20 -15 -50 -28 -65 -29 -24 -1 -29 -5 -29 -25 0 -37 38 -108 71 -131 70 -51
185 -48 249 7 31 26 33 26 138 20 129 -8 251 -36 330 -76 73 -37 152 -121 176
-187 10 -27 20 -56 23 -64 4 -10 9 -2 15 20 11 37 6 193 -7 222 -7 17 -4 17
35 3 23 -8 62 -15 86 -15 36 0 44 3 44 18 0 10 7 28 16 40 13 19 18 20 37 10
14 -9 65 -13 148 -13 120 0 128 1 184 30 38 19 74 48 100 81 l42 51 12 -32
c31 -87 112 -154 187 -155 l32 0 -39 78 c-52 102 -65 185 -48 310 6 51 16 95
20 98 5 3 9 -1 9 -10 0 -40 86 -106 159 -120 29 -5 32 -4 26 12 -38 89 -49
133 -61 249 -13 127 -34 203 -70 259 -14 21 -15 32 -4 87 15 77 33 114 62 123
18 5 29 -1 58 -35 58 -67 128 -73 163 -13 25 42 15 83 -29 121 -74 65 -185 59
-242 -14 l-20 -26 -17 58 c-33 113 -83 190 -206 318 -130 135 -149 164 -149
229 0 79 84 143 155 116 40 -15 45 -13 45 20 0 98 -86 183 -199 197 -116 13
-203 -61 -218 -187 -7 -57 14 -126 52 -176 14 -19 24 -34 21 -34 -3 0 -43 17
-88 39 -96 45 -157 94 -194 157 -26 44 -26 45 -8 59 11 8 36 15 57 15 54 0
104 26 133 69 35 52 32 63 -12 45 -39 -16 -161 -11 -199 9 -19 10 -19 10 0 18
11 4 30 5 43 2 12 -3 33 2 47 11 13 9 31 16 39 16 23 0 73 65 91 120 9 28 32
71 51 95 18 24 30 46 26 48 -25 15 -74 16 -105 3 -20 -8 -38 -12 -41 -8 -12
12 -5 89 10 110 9 13 14 26 10 29 -6 7 -96 -49 -96 -59 0 -5 -3 -8 -8 -8 -4 0
-15 29 -26 64 -19 66 -49 126 -65 126 -5 0 -18 -22 -29 -49z"/>
<path d="M2175 3226 c-63 -29 -98 -69 -126 -146 -12 -33 -39 -80 -60 -104 -35
-39 -37 -44 -20 -49 32 -8 113 12 152 38 21 13 50 41 66 60 55 71 152 100 226
67 42 -19 97 -76 97 -100 0 -7 5 -12 10 -12 17 0 11 112 -9 155 -37 81 -101
115 -213 115 -55 0 -85 -6 -123 -24z"/>
<path d="M1145 3230 c-131 -24 -192 -102 -183 -234 2 -36 7 -69 11 -73 4 -4
21 10 38 30 121 146 368 90 371 -84 0 -21 4 -39 9 -39 5 0 23 21 40 48 28 43
30 53 26 113 -7 111 -69 199 -157 227 -53 16 -110 21 -155 12z"/>
<path d="M2535 3163 c35 -80 43 -120 34 -162 -5 -24 -14 -52 -19 -62 -8 -14
-6 -19 10 -24 15 -5 20 -15 20 -44 0 -83 85 -146 148 -110 25 14 27 19 26 85
-1 98 -44 182 -136 270 -68 64 -97 80 -83 47z"/>
<path d="M880 3103 c-54 -36 -120 -109 -141 -156 -48 -113 -6 -215 115 -277
79 -40 86 -36 86 50 0 55 0 55 41 72 l40 17 -44 43 c-62 59 -83 147 -58 236
11 37 1 41 -39 15z"/>
<path d="M2253 2995 c-53 -24 -69 -45 -35 -45 28 0 116 -45 156 -80 45 -40 68
-84 90 -170 25 -97 74 -175 165 -262 59 -57 81 -85 81 -103 0 -33 13 -32 44 6
17 19 26 43 26 64 0 28 5 35 30 44 89 31 134 99 134 202 0 100 -53 177 -142
204 -21 6 -22 5 -16 -32 5 -33 2 -44 -21 -71 -22 -27 -34 -32 -69 -32 -67 0
-104 31 -151 125 -55 110 -72 133 -116 156 -52 26 -113 24 -176 -6z"/>
<path d="M1135 2979 c-60 -19 -85 -54 -85 -119 0 -34 6 -48 34 -76 28 -28 42
-34 75 -34 23 0 55 7 71 15 17 9 30 13 30 10 0 -14 -29 -61 -48 -78 -20 -18
-21 -18 -41 2 -57 57 -140 -16 -101 -88 14 -28 64 -44 107 -36 55 10 111 46
169 108 38 40 64 59 104 72 44 15 50 19 35 27 -9 6 -46 8 -81 6 l-64 -4 0 38
c0 106 -108 188 -205 157z"/>
<path d="M628 2835 c-53 -20 -147 -86 -192 -135 -112 -124 -114 -296 -5 -394
50 -45 138 -86 184 -86 l24 0 -19 33 c-31 52 -67 166 -74 232 -13 113 28 236
104 319 44 48 40 54 -22 31z"/>
<path d="M2945 2774 c26 -61 44 -124 45 -154 0 -23 -21 -79 -60 -160 -42 -89
-62 -142 -66 -184 l-7 -59 56 6 c101 10 183 71 217 162 7 17 12 60 12 97 1 57
-4 79 -31 132 -30 61 -103 140 -154 168 -17 9 -19 8 -12 -8z"/>
<path d="M2295 2615 c-41 -40 -33 -105 17 -131 38 -20 84 -10 105 22 55 85
-52 180 -122 109z"/>
<path d="M594 2609 c-11 -18 -7 -133 6 -190 15 -63 75 -199 88 -199 5 0 2 30
-5 68 -15 71 -11 127 12 172 13 26 12 28 -17 50 -16 12 -39 42 -50 66 -20 47
-23 50 -34 33z"/>
<path d="M2472 2500 c-12 -32 -60 -67 -105 -77 -15 -3 -26 -10 -24 -16 7 -22
54 -47 89 -49 35 -1 36 -2 43 -52 13 -101 61 -155 126 -141 16 4 29 8 29 10 0
1 -13 17 -30 35 -29 31 -37 61 -24 93 4 11 16 14 45 10 32 -5 39 -3 39 11 0
30 -18 53 -69 89 -28 20 -60 54 -73 77 -13 22 -26 40 -30 40 -3 0 -11 -13 -16
-30z"/>
<path d="M282 2490 c-38 -60 -55 -126 -50 -196 3 -52 9 -70 35 -101 16 -21 52
-49 79 -63 43 -22 61 -25 154 -25 75 0 123 5 168 19 70 22 80 36 24 36 -22 0
-73 9 -115 19 -181 47 -251 119 -266 274 l-7 72 -22 -35z"/>
<path d="M3187 2436 c-11 -115 -50 -176 -141 -223 -27 -14 -73 -27 -102 -30
-30 -3 -54 -9 -54 -13 0 -3 21 -17 48 -30 134 -67 287 -11 321 118 17 60 -8
157 -57 230 -6 9 -11 -9 -15 -52z"/>
<path d="M1547 2406 c-71 -20 -102 -55 -101 -114 0 -49 17 -85 63 -134 30 -34
38 -35 46 -5 13 42 58 89 103 109 36 16 60 19 112 16 37 -3 75 -10 86 -16 16
-9 13 -10 -16 -6 -43 7 -139 -10 -187 -32 -29 -14 -73 -64 -73 -84 0 -3 48 -5
108 -6 65 -1 132 -7 171 -18 78 -20 189 -77 226 -117 27 -27 27 -29 8 -29 -29
0 -45 -23 -41 -62 2 -25 10 -36 33 -47 25 -12 33 -12 58 2 l28 17 -6 -73 c-27
-297 -128 -456 -288 -457 -83 0 -148 52 -173 138 -13 45 -18 51 -31 41 -45
-38 -58 -146 -24 -212 l19 -37 -27 0 c-14 0 -32 -4 -40 -9 -13 -8 -13 -12 -1
-26 29 -34 75 -50 165 -55 l90 -5 -60 -14 c-112 -25 -221 25 -259 120 -16 39
-18 40 -39 26 -36 -23 -48 -57 -44 -119 6 -97 57 -128 209 -128 145 0 253 45
359 150 77 76 137 188 169 315 29 111 29 282 1 386 -56 214 -212 402 -391 470
-70 26 -188 34 -253 15z"/>
<path d="M2795 2358 c-27 -69 -61 -93 -131 -93 -30 0 -54 -3 -54 -6 0 -4 9
-18 20 -32 27 -35 79 -50 139 -42 47 6 49 8 55 43 8 48 6 142 -2 164 -5 12
-12 3 -27 -34z"/>
<path d="M958 2341 c-27 -24 -32 -36 -36 -89 -5 -65 14 -139 47 -181 l19 -24
11 52 c12 55 37 108 73 153 21 27 21 29 5 63 -15 31 -49 55 -77 55 -6 0 -24
-13 -42 -29z"/>
<path d="M1220 2102 l0 -267 23 -10 c15 -7 29 -7 44 0 23 10 23 10 23 278 l0
267 -45 0 -45 0 0 -268z"/>
<path d="M2147 2273 c4 -10 21 -42 40 -70 22 -36 28 -53 19 -53 -9 0 1 -26 30
-77 25 -43 53 -106 64 -140 25 -80 37 -212 21 -222 -6 -4 -20 -57 -30 -117
-11 -61 -25 -130 -31 -155 -15 -56 -62 -150 -100 -202 -16 -22 -28 -43 -25
-45 2 -2 22 10 44 27 150 119 257 317 278 514 5 50 4 57 -10 51 -12 -4 -17 4
-22 43 -25 179 -58 248 -178 371 -90 91 -112 108 -100 75z"/>
<path d="M1072 2190 c-12 -19 -34 -73 -48 -120 -21 -72 -32 -91 -68 -126 -40
-37 -99 -64 -140 -64 -21 0 -20 -8 3 -46 26 -43 78 -81 121 -89 34 -6 39 -3
92 53 31 33 60 70 63 83 3 13 4 96 3 184 l-3 160 -23 -35z"/>
<path d="M2683 2149 c-37 -11 -73 -52 -73 -85 l0 -23 43 19 c23 11 64 20 93
20 43 0 60 -6 100 -35 71 -50 112 -68 143 -60 l26 7 -37 19 c-44 22 -95 82
-103 121 -7 31 -20 36 -32 13 -7 -12 -14 -12 -48 0 -46 16 -67 17 -112 4z"/>
<path d="M191 2093 c-42 -21 -115 -132 -98 -149 2 -2 24 5 50 16 39 17 64 20
174 18 112 -2 135 1 184 20 31 12 63 30 72 40 15 16 11 17 -66 18 -60 1 -103
8 -161 27 -91 31 -109 32 -155 10z"/>
<path d="M1563 2099 c-46 -13 -99 -67 -113 -116 -21 -68 -7 -108 61 -179 l60
-62 39 17 39 16 -27 22 c-31 26 -18 31 17 7 21 -15 169 -39 179 -29 2 2 -15
13 -37 25 -110 56 -157 134 -149 245 6 72 3 75 -69 54z"/>
<path d="M2920 2103 c0 -17 44 -52 92 -73 31 -13 85 -24 153 -30 70 -6 125
-17 165 -33 58 -24 60 -24 60 -5 0 27 -23 69 -55 98 -23 22 -35 25 -93 24 -37
0 -94 -4 -128 -9 -56 -7 -113 3 -181 31 -7 3 -13 2 -13 -3z"/>
<path d="M681 2083 c-76 -39 -99 -126 -51 -192 l22 -32 18 29 c20 33 67 72 86
72 7 0 14 -11 16 -24 3 -23 3 -23 58 -9 57 14 130 56 130 73 0 6 -8 13 -17 17
-10 3 -51 21 -91 39 -97 44 -129 49 -171 27z"/>
<path d="M1686 2078 c-10 -39 -7 -97 8 -131 35 -84 203 -192 298 -192 38 0 53
5 75 27 15 15 25 29 22 30 -2 2 -22 12 -43 23 -28 14 -50 38 -77 85 -71 120
-118 154 -240 174 -32 6 -37 4 -43 -16z"/>
<path d="M374 1933 c-8 -8 -14 -25 -14 -38 0 -21 -2 -22 -29 -12 -39 14 -54 6
-80 -43 -20 -39 -21 -44 -6 -66 8 -13 23 -24 33 -24 12 -1 9 -5 -10 -15 -34
-19 -45 -51 -25 -73 8 -9 18 -27 21 -39 6 -18 15 -23 38 -23 17 0 39 7 48 15
15 14 16 12 12 -15 -6 -45 12 -60 73 -60 56 0 65 8 65 57 0 21 3 23 14 14 23
-19 80 -10 85 14 2 11 9 24 17 28 22 12 17 46 -11 71 -24 22 -24 24 -6 29 27
7 38 53 19 75 -8 9 -18 25 -21 35 -10 27 -37 32 -69 14 l-28 -16 0 33 c0 19
-6 38 -12 44 -19 15 -97 11 -114 -5z"/>
<path d="M3026 1938 c-9 -5 -16 -22 -16 -38 0 -27 -1 -28 -29 -17 -35 13 -58
5 -71 -25 -6 -13 -15 -30 -22 -39 -9 -14 -8 -22 5 -43 10 -14 25 -26 35 -26
12 -1 9 -5 -10 -16 -34 -18 -48 -62 -26 -78 9 -6 17 -20 19 -31 5 -24 62 -33
85 -14 12 9 14 6 14 -18 0 -41 17 -53 76 -53 56 0 64 8 64 58 0 20 3 23 12 14
7 -7 27 -12 44 -12 25 0 34 5 40 22 3 12 13 28 20 36 20 19 17 38 -7 61 -20
18 -20 21 -6 35 24 24 30 55 16 73 -7 8 -18 25 -24 37 -12 23 -51 34 -68 17
-17 -17 -27 -13 -27 12 0 12 -4 28 -9 36 -11 17 -90 23 -115 9z"/>
<path d="M3230 1919 c19 -12 54 -39 77 -60 43 -40 106 -60 125 -41 17 17 -22
74 -68 99 -29 17 -55 23 -104 23 l-65 0 35 -21z"/>
<path d="M706 1866 c-20 -42 -20 -69 -1 -106 9 -17 11 -30 6 -30 -11 0 -39
-59 -48 -101 l-6 -32 39 27 39 26 3 -22 c7 -44 42 -66 42 -27 0 21 48 76 85
96 18 10 16 14 -31 56 -28 25 -60 67 -74 96 -13 28 -27 51 -31 51 -4 0 -14
-15 -23 -34z"/>
<path d="M2656 1835 c-32 -33 -30 -76 9 -140 43 -72 53 -107 63 -219 l7 -86
23 15 c42 30 65 92 59 161 -2 34 -13 76 -23 94 -14 24 -16 34 -7 37 7 3 23 13
35 24 l23 19 -34 31 c-28 25 -40 30 -71 27 -35 -3 -39 -1 -44 24 -6 32 -18 35
-40 13z"/>
<path d="M50 1777 c-25 -13 -46 -30 -48 -39 -3 -14 40 -38 95 -53 31 -9 99 12
123 37 l20 22 -24 24 c-36 37 -108 41 -166 9z"/>
<path d="M3310 1781 c-20 -10 -35 -26 -35 -36 0 -30 51 -60 104 -60 44 0 131
30 131 45 0 13 -35 39 -73 55 -48 20 -85 19 -127 -4z"/>
<path d="M2081 1736 c-14 -15 -53 -42 -87 -61 -99 -56 -134 -112 -134 -215 0
-67 9 -76 60 -61 53 16 115 78 145 144 28 64 48 152 43 190 l-3 29 -24 -26z"/>
<path d="M1618 1736 c-58 -16 -118 -55 -152 -99 -22 -29 -26 -44 -26 -100 0
-36 5 -78 11 -94 20 -53 78 -102 141 -117 l27 -6 -14 41 c-31 88 -8 169 66
233 l44 37 10 -68 c6 -37 17 -79 24 -93 13 -24 49 -59 62 -60 4 0 9 37 10 83
3 70 8 90 31 124 15 23 41 47 57 54 39 17 39 23 -1 42 -75 35 -207 45 -290 23z"/>
<path d="M1243 1665 l-23 -10 0 -267 0 -268 23 0 c12 0 32 -3 45 -6 l22 -6 0
273 0 274 -23 10 c-15 7 -29 7 -44 0z"/>
<path d="M66 1661 c-11 -17 40 -77 85 -99 35 -17 60 -22 100 -20 l54 3 -33 18
c-18 10 -47 33 -65 51 -18 19 -42 39 -54 45 -26 13 -80 15 -87 2z"/>
<path d="M3345 1658 c-10 -6 -30 -24 -43 -40 -14 -16 -43 -39 -66 -51 l-41
-22 35 -3 c73 -7 119 7 166 52 56 54 58 76 7 76 -21 0 -47 -6 -58 -12z"/>
<path d="M90 1531 c0 -22 38 -96 60 -116 34 -31 84 -35 173 -13 61 15 98 18
146 14 55 -6 62 -5 52 7 -23 28 -113 58 -204 68 -51 6 -122 21 -159 33 -57 19
-68 20 -68 7z"/>
<path d="M3365 1533 c-50 -27 -127 -43 -203 -43 -139 0 -324 -41 -354 -77 -12
-15 -10 -16 19 -10 18 3 78 9 135 12 81 5 122 2 191 -13 103 -23 145 -17 188
24 26 25 67 109 58 118 -2 2 -17 -3 -34 -11z"/>
<path d="M476 1370 c-68 -12 -128 -55 -144 -105 -29 -87 17 -182 99 -206 22
-7 41 -10 43 -8 2 2 -1 31 -7 64 -9 53 -8 66 11 107 25 57 83 101 154 119 40
9 48 14 33 19 -36 13 -139 18 -189 10z"/>
<path d="M2857 1370 c-62 -11 -67 -16 -25 -25 55 -12 125 -53 149 -87 27 -37
37 -129 21 -177 -14 -39 2 -41 66 -10 59 29 82 69 82 141 0 47 -5 62 -27 89
-50 59 -160 88 -266 69z"/>
<path d="M294 1350 c-31 -12 -72 -65 -84 -108 -14 -53 -12 -140 5 -199 36
-121 197 -304 324 -367 40 -21 75 -36 77 -34 2 2 -3 22 -11 43 -21 58 -19 63
25 70 45 8 103 43 108 66 6 30 -164 130 -293 173 -102 33 -168 116 -169 212
-1 40 5 61 31 102 32 51 29 59 -13 42z"/>
<path d="M3146 1348 c4 -7 16 -25 27 -39 42 -59 39 -144 -9 -220 -27 -43 -65
-70 -134 -95 -25 -9 -68 -27 -97 -40 l-52 -22 -11 33 c-23 69 -65 112 -147
150 -43 20 -95 49 -115 65 -20 17 -39 30 -42 30 -11 0 -6 -84 8 -151 24 -110
72 -183 139 -208 16 -6 26 -15 22 -20 -14 -24 81 -81 136 -81 13 0 15 -7 9
-37 -4 -21 -11 -46 -15 -57 -8 -17 -7 -17 26 -1 111 57 296 230 341 320 71
140 54 311 -35 365 -37 23 -62 26 -51 8z"/>
<path d="M2744 1284 c4 -21 16 -55 27 -75 19 -38 19 -38 -2 -44 -11 -4 -32 -4
-46 -1 -42 11 -17 -11 57 -50 59 -31 73 -43 94 -85 l24 -49 26 30 c76 91 53
228 -46 278 -26 14 -68 27 -94 30 l-47 5 7 -39z"/>
<path d="M1039 845 c-59 -56 -113 -72 -186 -55 -29 6 -55 16 -58 21 -14 22
-25 5 -25 -38 1 -133 139 -214 281 -166 47 16 60 17 85 6 30 -12 74 -17 74 -8
0 3 -17 29 -39 58 -54 72 -71 109 -79 172 l-7 54 -46 -44z"/>
<path d="M2385 844 c-11 -77 -42 -148 -86 -198 l-41 -46 37 0 c20 0 45 5 56
11 16 8 30 7 60 -5 79 -32 192 -15 247 37 42 39 56 78 53 149 l-1 27 -42 -19
c-24 -11 -61 -20 -83 -20 -53 0 -135 39 -167 80 l-25 32 -8 -48z"/>
<path d="M2274 849 c-74 -38 -203 -55 -308 -40 -43 6 -82 9 -84 6 -10 -10 18
-82 39 -101 15 -13 40 -20 89 -22 l69 -4 -15 -29 -15 -29 53 0 c67 0 146 36
181 81 29 40 50 104 45 140 l-3 25 -51 -27z"/>
<path d="M1140 843 c0 -44 44 -128 95 -182 34 -37 74 -63 150 -101 86 -42 113
-61 163 -115 33 -36 62 -65 65 -65 3 0 11 25 17 55 26 124 -40 264 -160 340
-52 33 -165 71 -247 84 -39 6 -74 11 -77 11 -3 0 -6 -12 -6 -27z"/>
<path d="M1754 713 c11 -96 -8 -185 -65 -298 -44 -90 -49 -107 -49 -166 0 -77
17 -131 61 -195 l31 -46 29 28 c68 65 98 181 76 289 l-9 40 32 -43 c55 -77
187 -115 277 -81 26 10 113 86 113 99 0 4 -35 5 -78 2 -65 -4 -85 -1 -118 16
-56 29 -71 49 -115 159 -55 136 -102 202 -178 248 -12 7 -13 -2 -7 -52z"/>
<path d="M684 681 c10 -63 62 -184 111 -255 26 -39 63 -75 104 -103 35 -24 65
-42 67 -40 3 2 -8 30 -22 62 -22 47 -26 67 -21 109 3 28 9 59 13 70 7 17 4 18
-37 12 -44 -6 -44 -6 -86 46 -23 29 -63 73 -89 98 l-47 45 7 -44z"/>
<path d="M2725 659 c-35 -34 -74 -76 -87 -95 -21 -30 -26 -33 -60 -28 l-37 6
11 -38 c15 -56 5 -123 -25 -171 -15 -24 -27 -45 -27 -48 0 -10 63 27 115 66
66 50 119 121 149 200 24 65 43 169 31 169 -4 0 -35 -27 -70 -61z"/>
<path d="M1930 634 c0 -3 15 -38 33 -77 61 -132 108 -167 219 -167 81 0 126
22 154 75 41 76 40 82 -10 82 -24 1 -59 9 -77 19 -26 13 -53 17 -111 15 -107
-4 -138 4 -138 35 0 21 -5 24 -35 24 -19 0 -35 -3 -35 -6z"/>
<path d="M1008 543 c-61 -70 -48 -183 29 -254 42 -39 85 -58 155 -68 92 -12
98 -5 39 46 -64 56 -135 154 -165 230 -27 64 -36 71 -58 46z"/>
<path d="M1100 555 c0 -11 53 -110 80 -150 83 -120 243 -238 359 -264 l41 -9
0 62 c0 182 -118 313 -297 331 -61 6 -112 16 -165 31 -10 3 -18 3 -18 -1z"/>
<path d="M2416 510 c-32 -89 -105 -187 -191 -258 -43 -35 -41 -37 44 -32 100
5 176 53 217 136 21 42 25 64 22 98 -6 46 -40 106 -62 106 -6 0 -20 -23 -30
-50z"/>
</g>
</svg>
