<?xml version="1.0"?>
<svg xmlns="http://www.w3.org/2000/svg" xmlns:xlink="http://www.w3.org/1999/xlink" version="1.1" id="Layer_1" x="0px" y="0px" viewBox="0 0 512.001 512.001" style="enable-background:new 0 0 512.001 512.001;" xml:space="preserve" width="512px" height="512px"><g><g>
	<g>
		<path d="M255.5,59.998c-107.566,0-194.995,88.284-194.995,195.995c0,107.579,87.288,195.995,194.995,195.995    c107.66,0,195.995-88.366,195.995-195.995C451.494,148.333,363.129,59.998,255.5,59.998z M255.5,421.988    c-90.979,0-164.995-74.465-164.995-165.995S164.521,89.998,255.5,89.998c91.531,0,165.995,74.465,165.995,165.995    S347.03,421.988,255.5,421.988z" data-original="#000000" class="active-path" data-old_color="#000000" fill="#FFFFFF"/>
	</g>
</g><g>
	<g>
		<path d="M256.5,150.996c-57.895,0-104.997,47.102-104.997,104.997c0,57.895,47.102,104.997,104.997,104.997    c57.895,0,104.997-47.102,104.997-104.997C361.497,198.098,314.395,150.996,256.5,150.996z M256.5,330.991    c-41.354,0-74.998-33.644-74.998-74.998c0-41.354,33.644-74.998,74.998-74.998s74.998,33.644,74.998,74.998    C331.498,297.347,297.854,330.991,256.5,330.991z" data-original="#000000" class="active-path" data-old_color="#000000" fill="#FFFFFF"/>
	</g>
</g><g>
	<g>
		<path d="M256.5,210.994c-24.812,0-44.999,20.186-44.999,44.999s20.186,44.999,44.999,44.999s44.999-20.186,44.999-44.999    C301.498,231.181,281.312,210.994,256.5,210.994z M256.5,270.993c-8.271,0-15-6.729-15-15c0-8.271,6.729-15,15-15    c8.271,0,15,6.729,15,15C271.499,264.264,264.77,270.993,256.5,270.993z" data-original="#000000" class="active-path" data-old_color="#000000" fill="#FFFFFF"/>
	</g>
</g><g>
	<g>
		<path d="M493.916,409.566l-19.764-19.764c24.15-39.707,37.341-86.743,37.341-133.808c0-47.066-13.191-94.101-37.341-133.808    l19.759-19.76c23.455-23.435,23.466-61.406,0.005-84.848c-23.391-23.392-61.452-23.392-84.844,0l-19.763,19.764    C349.601,13.191,302.565,0,255.5,0c-47.195,0-92.852,12.869-132.822,37.328l-19.75-19.751    C79.535-5.816,41.474-5.815,18.088,17.573C-5.368,41.009-5.375,78.981,18.084,102.42l19.764,19.764    C13.697,161.892,0.507,208.927,0.507,255.993c0,47.066,13.191,94.101,37.341,133.808l-19.759,19.76    c-23.456,23.436-23.463,61.408-0.004,84.848c23.451,23.452,61.389,23.455,84.844,0l19.75-19.75    c39.969,24.458,85.627,37.327,132.821,37.327c47.066,0,94.101-13.191,133.809-37.341l19.764,19.764    c23.447,23.448,61.384,23.46,84.839,0.004C517.368,470.977,517.378,433.006,493.916,409.566z M472.705,473.198    c-11.728,11.728-30.689,11.73-42.419,0l-28.314-28.314c-5.093-5.094-13.09-5.849-19.047-1.793    c-36.846,25.082-82.099,38.896-127.425,38.896c-45.329,0-89.045-13.451-126.424-38.897c-5.957-4.055-13.953-3.303-19.047,1.793    l-28.314,28.314c-11.725,11.725-30.684,11.735-42.423-0.004c-11.721-11.712-11.729-30.69,0.004-42.415l28.314-28.314    c5.095-5.095,5.848-13.092,1.793-19.047c-25.082-36.845-38.897-82.098-38.897-127.424c0-45.326,13.814-90.578,38.897-127.424    c4.055-5.956,3.302-13.953-1.793-19.047L39.291,81.203c-11.72-11.711-11.728-30.69,0.005-42.414    c11.728-11.728,30.689-11.73,42.419,0l28.314,28.314c5.094,5.094,13.092,5.848,19.047,1.793    C166.455,43.45,210.171,29.999,255.5,29.999c45.326,0,90.579,13.814,127.424,38.897c5.956,4.055,13.953,3.301,19.047-1.793    l28.314-28.314c11.725-11.725,30.684-11.735,42.423,0.004c11.721,11.712,11.729,30.691-0.004,42.415l-28.314,28.314    c-5.095,5.095-5.848,13.092-1.793,19.047c25.083,36.845,38.897,82.098,38.897,127.424c0,45.326-13.814,90.579-38.897,127.424    c-4.055,5.956-3.302,13.953,1.793,19.047l28.319,28.319C484.429,442.495,484.437,461.473,472.705,473.198z" data-original="#000000" class="active-path" data-old_color="#000000" fill="#FFFFFF"/>
	</g>
</g></g> </svg>
