<?xml version="1.0"?>
<svg xmlns="http://www.w3.org/2000/svg" xmlns:xlink="http://www.w3.org/1999/xlink" version="1.1" id="Capa_1" x="0px" y="0px" viewBox="0 0 512 512" style="enable-background:new 0 0 512 512;" xml:space="preserve" width="512px" height="512px"><g><g>
	<g>
		<path d="M324.267,0H187.733c-51.755,0-93.867,42.112-93.867,93.867v324.267c0,51.755,42.112,93.867,93.867,93.867h136.533    c51.755,0,93.867-42.112,93.867-93.867V93.867C418.133,42.112,376.021,0,324.267,0z M401.067,418.133    c0,42.351-34.458,76.8-76.8,76.8H187.733c-42.342,0-76.8-34.449-76.8-76.8V93.867c0-42.351,34.458-76.8,76.8-76.8h136.533    c42.342,0,76.8,34.449,76.8,76.8V418.133z" data-original="#000000" class="active-path" data-old_color="#000000" fill="#FFFFFF"/>
	</g>
</g><g>
	<g>
		<path d="M179.2,42.667c-23.526,0-42.667,19.14-42.667,42.667c0,23.526,19.14,42.667,42.667,42.667    c23.526,0,42.667-19.14,42.667-42.667C221.867,61.807,202.726,42.667,179.2,42.667z M179.2,110.933    c-14.114,0-25.6-11.486-25.6-25.6s11.486-25.6,25.6-25.6s25.6,11.486,25.6,25.6S193.314,110.933,179.2,110.933z" data-original="#000000" class="active-path" data-old_color="#000000" fill="#FFFFFF"/>
	</g>
</g><g>
	<g>
		<path d="M290.133,230.4h-68.267c-14.114,0-25.6,11.486-25.6,25.6s11.486,25.6,25.6,25.6h68.267c14.114,0,25.6-11.486,25.6-25.6    S304.247,230.4,290.133,230.4z M290.133,264.533h-68.267c-4.702,0-8.533-3.823-8.533-8.533s3.831-8.533,8.533-8.533h68.267    c4.702,0,8.533,3.823,8.533,8.533S294.835,264.533,290.133,264.533z" data-original="#000000" class="active-path" data-old_color="#000000" fill="#FFFFFF"/>
	</g>
</g><g>
	<g>
		<path d="M290.133,332.8h-68.267c-14.114,0-25.6,11.486-25.6,25.6s11.486,25.6,25.6,25.6h68.267c14.114,0,25.6-11.486,25.6-25.6    S304.247,332.8,290.133,332.8z M290.133,366.933h-68.267c-4.702,0-8.533-3.823-8.533-8.533s3.831-8.533,8.533-8.533h68.267    c4.702,0,8.533,3.823,8.533,8.533S294.835,366.933,290.133,366.933z" data-original="#000000" class="active-path" data-old_color="#000000" fill="#FFFFFF"/>
	</g>
</g><g>
	<g>
		<path d="M290.133,145.067h-68.267c-42.342,0-76.8,34.449-76.8,76.8V256c0,4.719,3.823,8.533,8.533,8.533h51.2    c4.71,0,8.533-3.814,8.533-8.533c0-4.71,3.831-8.533,8.533-8.533h68.267c4.702,0,8.533,3.823,8.533,8.533    c0,4.719,3.823,8.533,8.533,8.533h51.2c4.71,0,8.533-3.814,8.533-8.533v-34.133C366.933,179.516,332.476,145.067,290.133,145.067z     M349.858,247.467h-35.593c-3.516-9.933-13.013-17.067-24.141-17.067h-68.267c-11.127,0-20.617,7.134-24.141,17.067h-35.593v-25.6    c0-32.93,26.795-59.733,59.733-59.733h68.267c32.939,0,59.733,26.803,59.733,59.733V247.467z" data-original="#000000" class="active-path" data-old_color="#000000" fill="#FFFFFF"/>
	</g>
</g><g>
	<g>
		<path d="M358.4,349.867h-51.2c-4.71,0-8.533,3.814-8.533,8.533c0,4.71-3.831,8.533-8.533,8.533h-68.267    c-4.702,0-8.533-3.823-8.533-8.533c0-4.719-3.823-8.533-8.533-8.533h-51.2c-4.71,0-8.533,3.814-8.533,8.533v34.133    c0,42.351,34.458,76.8,76.8,76.8h68.267c42.342,0,76.8-34.449,76.8-76.8V358.4C366.933,353.681,363.11,349.867,358.4,349.867z     M349.867,392.533c0,32.93-26.795,59.733-59.733,59.733h-68.267c-32.939,0-59.733-26.803-59.733-59.733v-25.6h35.593    C201.25,376.866,210.739,384,221.867,384h68.267c11.128,0,20.617-7.134,24.141-17.067h35.593V392.533z" data-original="#000000" class="active-path" data-old_color="#000000" fill="#FFFFFF"/>
	</g>
</g><g>
	<g>
		<path d="M358.4,247.467h-51.2c-4.71,0-8.533,3.814-8.533,8.533c0,4.71-3.831,8.533-8.533,8.533h-68.267    c-4.702,0-8.533-3.823-8.533-8.533c0-4.719-3.823-8.533-8.533-8.533h-51.2c-4.71,0-8.533,3.814-8.533,8.533v102.4    c0,4.719,3.823,8.533,8.533,8.533h51.2c4.71,0,8.533-3.814,8.533-8.533c0-4.71,3.831-8.533,8.533-8.533h68.267    c4.702,0,8.533,3.823,8.533,8.533c0,4.719,3.823,8.533,8.533,8.533h51.2c4.71,0,8.533-3.814,8.533-8.533V256    C366.933,251.281,363.11,247.467,358.4,247.467z M349.858,349.867h-35.593c-3.516-9.933-13.013-17.067-24.141-17.067h-68.267    c-11.128,0-20.617,7.134-24.141,17.067h-35.593v-85.333h35.592c3.524,9.933,13.013,17.067,24.141,17.067h68.267    c11.128,0,20.617-7.134,24.141-17.067h35.593V349.867z" data-original="#000000" class="active-path" data-old_color="#000000" fill="#FFFFFF"/>
	</g>
</g></g> </svg>
