<?xml version="1.0"?>
<svg xmlns="http://www.w3.org/2000/svg" width="512px" height="512px" viewBox="0 0 512 512" class=""><g><g><path d="M472,128H419.84a207.772,207.772,0,0,0-327.68,0H40A32.036,32.036,0,0,0,8,160V400a32.036,32.036,0,0,0,32,32H204.9l-10.67,32H168a8,8,0,0,0-8,8v16H80a8,8,0,0,0,0,16H432a8,8,0,0,0,0-16H352V472a8,8,0,0,0-8-8H317.77L307.1,432H472a32.036,32.036,0,0,0,32-32V160A32.036,32.036,0,0,0,472,128ZM256,64c103.19,0,187.62,81.83,191.84,184H305.77l57.79-78.48a8,8,0,0,0-.78-10.4l-9.9-9.9a8,8,0,0,0-10.4-.78l-91.22,67.18a6.788,6.788,0,0,0-.9.79A40.086,40.086,0,0,0,216.8,248H64.16C68.38,145.83,152.81,64,256,64Zm16.72,155.68,73.71-54.28.17.17-54.28,73.71A40.178,40.178,0,0,0,272.72,219.68ZM278.63,248H233.37a24,24,0,0,1,45.26,0ZM336,480v8H176v-8ZM211.1,464l10.67-32h68.46l10.67,32ZM488,400a16.021,16.021,0,0,1-16,16H40a16.021,16.021,0,0,1-16-16V384H488Zm0-32H24V160a16.021,16.021,0,0,1,16-16H80.8A206.6,206.6,0,0,0,48.17,248H40a8,8,0,0,0,0,16H472a8,8,0,0,0,0-16h-8.17A206.6,206.6,0,0,0,431.2,144H472a16.021,16.021,0,0,1,16,16Z" data-original="#000000" class="active-path" data-old_color="#000000" fill="#FFFFFF"/><path d="M96,392H48a8,8,0,0,0,0,16H96a8,8,0,0,0,0-16Z" data-original="#000000" class="active-path" data-old_color="#000000" fill="#FFFFFF"/><path d="M128,392h-8a8,8,0,0,0,0,16h8a8,8,0,0,0,0-16Z" data-original="#000000" class="active-path" data-old_color="#000000" fill="#FFFFFF"/><path d="M256,104a8,8,0,0,0,8-8V80a8,8,0,0,0-16,0V96A8,8,0,0,0,256,104Z" data-original="#000000" class="active-path" data-old_color="#000000" fill="#FFFFFF"/><path d="M134.343,145.657a8,8,0,0,0,11.314-11.314l-12-12a8,8,0,1,0-11.314,11.314Z" data-original="#000000" class="active-path" data-old_color="#000000" fill="#FFFFFF"/><path d="M80,240H96a8,8,0,0,0,0-16H80a8,8,0,0,0,0,16Z" data-original="#000000" class="active-path" data-old_color="#000000" fill="#FFFFFF"/><path d="M369,148a7.976,7.976,0,0,0,5.657-2.343l12-12a8,8,0,1,0-11.314-11.314l-12,12A8,8,0,0,0,369,148Z" data-original="#000000" class="active-path" data-old_color="#000000" fill="#FFFFFF"/><path d="M413,240h16a8,8,0,0,0,0-16H413a8,8,0,0,0,0,16Z" data-original="#000000" class="active-path" data-old_color="#000000" fill="#FFFFFF"/><path d="M112,312H400a8,8,0,0,0,8-8V280a8,8,0,0,0-8-8H112a8,8,0,0,0-8,8v24A8,8,0,0,0,112,312Zm8-24H392v8H120Z" data-original="#000000" class="active-path" data-old_color="#000000" fill="#FFFFFF"/><path d="M352,320H160a8,8,0,0,0,0,16H352a8,8,0,0,0,0-16Z" data-original="#000000" class="active-path" data-old_color="#000000" fill="#FFFFFF"/><path d="M264,344H216a8,8,0,0,0,0,16h48a8,8,0,0,0,0-16Z" data-original="#000000" class="active-path" data-old_color="#000000" fill="#FFFFFF"/><path d="M296,344h-8a8,8,0,0,0,0,16h8a8,8,0,0,0,0-16Z" data-original="#000000" class="active-path" data-old_color="#000000" fill="#FFFFFF"/><path d="M56,104A48,48,0,1,0,8,56,48.054,48.054,0,0,0,56,104ZM25.013,64H50.345L58.8,87.871c-.922.08-1.853.129-2.8.129A32.056,32.056,0,0,1,25.013,64ZM73.876,82.529,64.964,57.35,83.178,39.135a31.951,31.951,0,0,1-9.3,43.394ZM56,24a31.792,31.792,0,0,1,15.607,4.079L51.687,48H25.013A32.056,32.056,0,0,1,56,24Z" data-original="#000000" class="active-path" data-old_color="#000000" fill="#FFFFFF"/><path d="M120,24h96a8,8,0,0,0,0-16H120a8,8,0,0,0,0,16Z" data-original="#000000" class="active-path" data-old_color="#000000" fill="#FFFFFF"/><path d="M120,48h32a8,8,0,0,0,0-16H120a8,8,0,0,0,0,16Z" data-original="#000000" class="active-path" data-old_color="#000000" fill="#FFFFFF"/><path d="M496,8H464a8,8,0,0,0-8,8V64a8,8,0,0,0,8,8h32a8,8,0,0,0,8-8V16A8,8,0,0,0,496,8Zm-8,48H472V24h16Z" data-original="#000000" class="active-path" data-old_color="#000000" fill="#FFFFFF"/><path d="M344,24h96a8,8,0,0,0,0-16H344a8,8,0,0,0,0,16Z" data-original="#000000" class="active-path" data-old_color="#000000" fill="#FFFFFF"/><path d="M440,32H376a8,8,0,0,0,0,16h64a8,8,0,0,0,0-16Z" data-original="#000000" class="active-path" data-old_color="#000000" fill="#FFFFFF"/><path d="M440,56H416a8,8,0,0,0,0,16h24a8,8,0,0,0,0-16Z" data-original="#000000" class="active-path" data-old_color="#000000" fill="#FFFFFF"/></g></g> </svg>
