<svg width="419" height="363" viewBox="0 0 419 363" fill="none" xmlns="http://www.w3.org/2000/svg">
<path fill-rule="evenodd" clip-rule="evenodd" d="M373.862 4.29609C366.437 6.80609 322.112 21.4681 275.362 36.8781C228.612 52.2881 172.137 70.9111 149.862 78.2611C127.587 85.6111 90.6866 97.7671 67.8616 105.275C45.0366 112.782 23.1206 120.056 19.1606 121.439C5.3926 126.247 -0.775404 134.895 0.0775956 148.196C0.589596 156.168 3.4166 161.779 9.0736 166.054C10.8826 167.42 23.3866 173.364 36.8616 179.263C50.3366 185.162 69.2366 193.447 78.8616 197.674C88.4866 201.902 98.4426 206.214 100.987 207.255L105.612 209.15L107.311 217.189C108.246 221.611 110.533 232.204 112.392 240.729C114.252 249.254 118.96 271.079 122.855 289.229C134.153 341.879 133.828 340.62 137.095 344.341C140.754 348.508 145.712 349.648 150.42 347.403C153.072 346.138 216.833 299.254 222.9 294.107C224.221 292.987 230.193 297.516 265.233 326.215C291.587 347.8 307.573 360.217 310.393 361.294C317.334 363.945 327.621 362.98 333.041 359.171C338.601 355.263 342.569 349.506 344.39 342.704C345.196 339.693 348.535 325.754 351.81 311.729C355.086 297.704 361.845 268.904 366.831 247.729C371.818 226.554 376.744 205.629 377.778 201.229C378.813 196.829 381.737 184.454 384.276 173.729C393.278 135.708 412.939 52.0341 415.989 38.7641C418.775 26.6401 418.968 24.7811 417.923 20.1091C416.358 13.1191 411.624 6.26009 406.148 3.05109C402.685 1.02109 400.007 0.337094 394.506 0.0740941C388.164 -0.227906 385.846 0.246094 373.862 4.29609ZM393.48 26.4791C393.196 27.4421 388.416 47.5791 382.858 71.2291C377.299 94.8791 371.679 118.729 370.367 124.229C366.631 139.901 364.186 150.292 361.309 162.729C359.846 169.054 357.379 179.629 355.827 186.229C333.734 280.2 330.828 292.541 324.033 321.229C321.811 330.615 319.761 337.229 319.075 337.229C318.431 337.229 313.733 333.801 308.634 329.611C303.534 325.421 279.112 305.428 254.362 285.182C229.612 264.936 205.614 245.25 201.032 241.434L192.702 234.496L203.532 223.362C209.489 217.239 218.862 207.496 224.362 201.711C259.443 164.813 291.791 131.061 310.388 111.952C325.151 96.7811 326.713 93.6791 323.247 86.4111C321.222 82.1641 317.189 79.7291 312.179 79.7291C308.345 79.7291 293.596 87.6511 195.862 142.203C185.687 147.883 163.507 160.233 146.573 169.648L115.783 186.767L96.5726 178.309C86.0066 173.657 65.7246 164.761 51.5006 158.54C37.2766 152.319 25.7326 146.779 25.8476 146.229C25.9616 145.679 33.3236 142.847 42.2086 139.936C51.0926 137.025 76.5866 128.619 98.8616 121.257C121.137 113.894 175.137 96.0831 218.862 81.6771C262.587 67.2711 319.062 48.6071 344.362 40.2011C369.662 31.7951 391.18 24.8751 392.179 24.8231C393.459 24.7571 393.844 25.2471 393.48 26.4791ZM240.696 148.576C237.762 151.791 219.709 170.731 200.577 190.665C181.445 210.598 165.115 227.939 164.289 229.2C163.463 230.46 159.663 242.458 155.844 255.86C147.099 286.555 147.446 285.772 145.909 278.229C144.803 272.807 140.248 251.726 133.198 219.401C131.741 212.724 130.998 207.212 131.49 206.743C131.97 206.287 150.812 195.681 173.362 183.175C195.912 170.668 221.337 156.48 229.862 151.644C238.387 146.808 245.512 142.824 245.696 142.79C245.88 142.757 243.63 145.36 240.696 148.576ZM193.648 267.694C199.305 272.27 203.805 276.376 203.648 276.819C203.394 277.535 168.934 303.729 168.246 303.729C168.094 303.729 168.673 301.366 169.533 298.479C170.393 295.592 171.652 291.204 172.332 288.729C178.852 264.978 181.217 257.771 182.242 258.537C182.858 258.998 187.991 263.118 193.648 267.694Z" fill="white"/>
</svg>
